<svg width="24" height="24" viewBox="0 0 24 24" fill="none" xmlns="http://www.w3.org/2000/svg">
<path d="M9.25 12.0004C9.25 10.4816 10.4812 9.25037 12 9.25037C13.5188 9.25037 14.75 10.4816 14.75 12.0004C14.75 13.5191 13.5188 14.7504 12 14.7504C10.4812 14.7504 9.25 13.5191 9.25 12.0004Z" fill="black"/>
<path fill-rule="evenodd" clip-rule="evenodd" d="M4.21399 8.5968C5.75333 6.61602 8.34971 4.25 12 4.25C15.6503 4.25 18.2467 6.61602 19.786 8.5968C21.3519 10.6118 21.3519 13.389 19.786 15.404C18.2467 17.3847 15.6503 19.7508 12 19.7508C8.34971 19.7508 5.75333 17.3847 4.21399 15.404C2.64807 13.389 2.64807 10.6118 4.21399 8.5968ZM12 7.75037C9.65279 7.75037 7.75 9.65316 7.75 12.0004C7.75 14.3476 9.65279 16.2504 12 16.2504C14.3472 16.2504 16.25 14.3476 16.25 12.0004C16.25 9.65316 14.3472 7.75037 12 7.75037Z" fill="black"/>
</svg>
