<svg width="24" height="24" viewBox="0 0 24 24" fill="none" xmlns="http://www.w3.org/2000/svg">
<path d="M12 19.7508C10.339 19.7508 8.89613 19.2609 7.67184 18.5403L10.3106 15.9015C10.8284 16.126 11.3997 16.2505 12 16.2505C14.3472 16.2505 16.25 14.3477 16.25 12.0005C16.25 11.4002 16.1255 10.8289 15.901 10.3111L18.7809 7.43119C19.155 7.82095 19.4901 8.21603 19.786 8.59686C21.3519 10.6118 21.3519 13.389 19.786 15.404C18.2467 17.3848 15.6503 19.7508 12 19.7508Z" fill="black"/>
<path d="M13.3982 9.63197L9.63146 13.3987C9.3891 12.989 9.25 12.511 9.25 12.0005C9.25 10.4817 10.4812 9.25052 12 9.25052C12.5105 9.25052 12.9885 9.38962 13.3982 9.63197Z" fill="black"/>
<path d="M14.4808 8.54933C13.7827 8.04663 12.9259 7.75052 12 7.75052C9.65279 7.75052 7.75 9.65331 7.75 12.0005C7.75 12.9265 8.04611 13.7832 8.54881 14.4813L5.84748 17.1827C5.2115 16.6032 4.66698 15.9869 4.21399 15.404C2.64807 13.389 2.64807 10.6118 4.21399 8.59686C5.75333 6.61608 8.34971 4.25006 12 4.25006C14.0147 4.25006 15.7083 4.97081 17.0804 5.94973L14.4808 8.54933Z" fill="black"/>
<path d="M14.7057 11.5064C14.7348 11.6667 14.75 11.8318 14.75 12.0005C14.75 13.5193 13.5188 14.7505 12 14.7505C11.8313 14.7505 11.6662 14.7353 11.5059 14.7062L14.7057 11.5064Z" fill="black"/>
<path fill-rule="evenodd" clip-rule="evenodd" d="M19.5987 3.43189C19.8916 3.72478 19.8916 4.19966 19.5987 4.49255L4.59869 19.4925C4.3058 19.7854 3.83092 19.7854 3.53803 19.4925C3.24514 19.1997 3.24514 18.7248 3.53803 18.4319L18.538 3.43189C18.8309 3.139 19.3058 3.139 19.5987 3.43189Z" fill="black"/>
</svg>
