<svg width="24" height="24" viewBox="0 0 24 24" fill="none" xmlns="http://www.w3.org/2000/svg">
<path d="M13.303 2.6189C12.5535 1.97534 11.4465 1.97534 10.6971 2.6189L2.70349 9.48314C1.29967 10.6886 2.14545 12.9867 3.98987 13.0004C3.99538 13.0004 3.99999 13.0049 3.99999 13.0104V20C3.99999 21.1046 4.89542 22 5.99999 22H9.49999C10.0523 22 10.5 21.5523 10.5 21V18C10.5 17.4477 10.9477 17 11.5 17H12.5C13.0523 17 13.5 17.4477 13.5 18V21C13.5 21.5523 13.9477 22 14.5 22H18C19.1046 22 20 21.1046 20 20V13.0104C20 13.0049 20.0046 13.0004 20.0101 13.0004C21.8546 12.9868 22.7004 10.6886 21.2965 9.48314L13.303 2.6189Z" fill="black"/>
</svg>
