<svg width="24" height="24" viewBox="0 0 24 24" fill="none" xmlns="http://www.w3.org/2000/svg">
<path fill-rule="evenodd" clip-rule="evenodd" d="M4.88397 2.44888C6.12097 2.272 7.37686 2.272 8.61386 2.44888C9.87673 2.62946 10.8688 3.62198 11.0492 4.88466C11.2259 6.12103 11.2259 7.37659 11.0493 8.61298C10.8688 9.87653 9.87565 10.8693 8.61223 11.0496C7.37649 11.226 6.1214 11.226 4.88566 11.0496C3.62212 10.8693 2.62895 9.87643 2.44847 8.61278C2.2719 7.37652 2.27195 6.12103 2.44856 4.8848C2.62896 3.62209 3.62105 2.62946 4.88397 2.44888Z" fill="black"/>
<path fill-rule="evenodd" clip-rule="evenodd" d="M4.88397 12.9515C6.12097 12.7746 7.37686 12.7746 8.61386 12.9515C9.87673 13.1321 10.8688 14.1246 11.0492 15.3873C11.2259 16.6236 11.2259 17.8792 11.0493 19.1156C10.8688 20.3792 9.87565 21.3719 8.61223 21.5522C7.37649 21.7286 6.1214 21.7286 4.88566 21.5522C3.62212 21.3719 2.62895 20.3791 2.44847 19.1154C2.2719 17.8791 2.27195 16.6237 2.44856 15.3874C2.62896 14.1247 3.62105 13.1321 4.88397 12.9515Z" fill="black"/>
<path fill-rule="evenodd" clip-rule="evenodd" d="M15.3861 2.44888C16.6231 2.272 17.879 2.272 19.116 2.44888C20.3788 2.62946 21.3709 3.62198 21.5513 4.88466C21.728 6.12103 21.728 7.37659 21.5514 8.61298C21.3709 9.87653 20.3778 10.8693 19.1143 11.0496C17.8786 11.226 16.6235 11.226 15.3878 11.0496C14.1242 10.8693 13.1311 9.87643 12.9506 8.61278C12.774 7.37652 12.7741 6.12103 12.9507 4.8848C13.1311 3.62209 14.1232 2.62946 15.3861 2.44888Z" fill="black"/>
<path fill-rule="evenodd" clip-rule="evenodd" d="M15.3861 12.9515C16.6231 12.7746 17.879 12.7746 19.116 12.9515C20.3788 13.1321 21.3709 14.1246 21.5513 15.3873C21.728 16.6236 21.728 17.8792 21.5514 19.1156C21.3709 20.3792 20.3778 21.3719 19.1143 21.5522C17.8786 21.7286 16.6235 21.7286 15.3878 21.5522C14.1242 21.3719 13.1311 20.3791 12.9506 19.1154C12.774 17.8791 12.7741 16.6237 12.9507 15.3874C13.1311 14.1247 14.1232 13.1321 15.3861 12.9515Z" fill="black"/>
</svg>
